<?xml version="1.0" encoding="UTF-8"?> <svg xmlns="http://www.w3.org/2000/svg" xmlns:xlink="http://www.w3.org/1999/xlink" width="1280" height="720" overflow=""><defs><clipPath id="clip0"><rect x="0" y="0" width="1280" height="720"></rect></clipPath><clipPath id="clip1"><rect x="623" y="97" width="657" height="534"></rect></clipPath><clipPath id="clip2"><rect x="699" y="118" width="567" height="459"></rect></clipPath><clipPath id="clip3"><rect x="623" y="97" width="657" height="534"></rect></clipPath><clipPath id="clip4"><rect x="623" y="97" width="657" height="534"></rect></clipPath><clipPath id="clip5"><rect x="623" y="97" width="657" height="534"></rect></clipPath><clipPath id="clip6"><rect x="623" y="97" width="657" height="534"></rect></clipPath><clipPath id="clip7"><rect x="623" y="97" width="657" height="534"></rect></clipPath><clipPath id="clip8"><rect x="623" y="97" width="657" height="534"></rect></clipPath><clipPath id="clip9"><rect x="623" y="97" width="657" height="534"></rect></clipPath><clipPath id="clip10"><rect x="623" y="97" width="657" height="534"></rect></clipPath><clipPath id="clip11"><rect x="623" y="97" width="657" height="534"></rect></clipPath><clipPath id="clip12"><rect x="-68" y="147" width="728" height="534"></rect></clipPath><clipPath id="clip13"><rect x="-68" y="147" width="728" height="534"></rect></clipPath></defs><g clip-path="url(#clip0)"><rect x="0" y="0" width="1280" height="720" fill="#FFFFFF"></rect><g clip-path="url(#clip1)"><path d="M699.5 485.5 1265.5 485.5M699.5 393.5 1265.5 393.5M699.5 301.5 1265.5 301.5M699.5 210.5 1265.5 210.5M699.5 118.5 1265.5 118.5" stroke="#D9D9D9" stroke-linejoin="round" stroke-miterlimit="10" fill="none"></path></g><g clip-path="url(#clip2)"><path d="M797 201 886 201 886 577 797 577ZM1080 494 1168 494 1168 577 1080 577Z" fill="#12436D"></path></g><g clip-path="url(#clip3)"><path d="M699.5 576.5 1265.5 576.5" stroke="#D9D9D9" stroke-linejoin="round" stroke-miterlimit="10" fill="none" fill-rule="evenodd"></path></g><g clip-path="url(#clip4)"><text font-family="Arial,Arial_MSFontService,sans-serif" font-weight="400" font-size="27" transform="translate(662.039 585)">0</text></g><g clip-path="url(#clip5)"><text font-family="Arial,Arial_MSFontService,sans-serif" font-weight="400" font-size="27" transform="translate(647.206 493)">20</text></g><g clip-path="url(#clip6)"><text font-family="Arial,Arial_MSFontService,sans-serif" font-weight="400" font-size="27" transform="translate(647.206 402)">40</text></g><g clip-path="url(#clip7)"><text font-family="Arial,Arial_MSFontService,sans-serif" font-weight="400" font-size="27" transform="translate(647.206 310)">60</text></g><g clip-path="url(#clip8)"><text font-family="Arial,Arial_MSFontService,sans-serif" font-weight="400" font-size="27" transform="translate(647.206 219)">80</text></g><g clip-path="url(#clip9)"><text font-family="Arial,Arial_MSFontService,sans-serif" font-weight="400" font-size="27" transform="translate(632.372 127)">100</text></g><g clip-path="url(#clip10)"><text font-family="Arial,Arial_MSFontService,sans-serif" font-weight="400" font-size="27" transform="translate(778.195 617)">Answered</text></g><g clip-path="url(#clip11)"><text font-family="Arial,Arial_MSFontService,sans-serif" font-weight="400" font-size="27" transform="translate(1041.68 617)">Not answered</text></g><g clip-path="url(#clip12)"><path d="M296.171 162.585C435.497 162.585 548.443 275.531 548.443 414.857 548.443 554.183 435.497 667.129 296.171 667.129 156.845 667.129 43.8992 554.183 43.8992 414.857 43.8992 377.722 52.0975 341.045 67.9087 307.445L296.171 414.857Z" stroke="#FFFFFF" stroke-width="3" stroke-linejoin="round" stroke-miterlimit="10" fill="#12436D" fill-rule="evenodd"></path></g><g clip-path="url(#clip13)"><path d="M67.9086 307.445C109.517 219.023 198.449 162.585 296.171 162.585L296.171 414.857Z" stroke="#FFFFFF" stroke-width="3" stroke-linejoin="round" stroke-miterlimit="10" fill="#F46A25" fill-rule="evenodd"></path></g><text font-family="Arial,Arial_MSFontService,sans-serif" font-weight="400" font-size="27" transform="translate(363.928 690)">Answered (82%)<tspan font-size="27" x="-304.738" y="-535">Not </tspan><tspan font-size="27" x="-304.738" y="-503">Answered </tspan><tspan font-size="27" x="-304.738" y="-471">(18%)</tspan></text><path d="M614 0 618.619 720" stroke="#000000" stroke-width="4" stroke-miterlimit="8" stroke-dasharray="16 12" fill="none" fill-rule="evenodd"></path></g></svg> 